<svg width="140" height="140" viewBox="0 0 140 140" fill="none" xmlns="http://www.w3.org/2000/svg">
<g clip-path="url(#clip0)">
<path d="M70.0002 0C47.4591 0.0257031 29.1927 18.2924 29.167 40.8332V67.0832C29.167 68.6941 30.4729 70 32.0838 70H43.7502C45.3611 70 46.667 68.6941 46.667 67.0832V40.8332C46.667 27.9467 57.1137 17.5 70.0002 17.5C82.8868 17.5 93.3335 27.9467 93.3335 40.8332V67.0832C93.3335 68.6941 94.6394 70 96.2502 70H107.917C109.528 70 110.834 68.6941 110.834 67.0832V40.8332C110.808 18.2924 92.5413 0.0257031 70.0002 0Z" fill="#455A64"/>
<path d="M107.917 64.167H32.083C27.2505 64.167 23.333 68.0845 23.333 72.917V125.417C23.333 133.471 29.8621 140 37.9163 140H102.083C110.137 140 116.666 133.471 116.666 125.417V72.917C116.667 68.0845 112.749 64.167 107.917 64.167Z" fill="#00AAE1"/>
<path d="M77.8809 101.909C80.303 99.7174 81.6795 96.6 81.6667 93.3337C81.6667 86.8905 76.4432 81.667 69.9999 81.667C63.5566 81.667 58.3332 86.8905 58.3332 93.3337C58.3206 96.6 59.6968 99.7174 62.1189 101.909L58.4789 112.829C57.9698 114.357 58.7961 116.009 60.3243 116.518C60.6227 116.617 60.9352 116.668 61.2496 116.667H78.7496C80.3605 116.669 81.668 115.365 81.67 113.754C81.6702 113.44 81.6199 113.127 81.5204 112.829L77.8809 101.909Z" fill="#455A64"/>
</g>
<defs>
<clipPath id="clip0">
<rect width="140" height="140" fill="white"/>
</clipPath>
</defs>
</svg>
