<svg width="100" height="100" viewBox="0 0 100 100" fill="none" xmlns="http://www.w3.org/2000/svg">
<path d="M89.1752 40.4489C89.1752 18.1047 71.6252 0 50.0002 0C39.4393 0.216295 29.3928 4.5908 22.0535 12.1688C14.7141 19.7468 10.6777 29.9131 10.8252 40.4489C10.8236 47.6337 12.7114 54.6932 16.3002 60.9227L21.3002 58.005V37.1322L50.0002 22.9925L78.6502 37.1322V58.1297L83.6502 61.0224C87.269 54.7667 89.1744 47.6714 89.1752 40.4489Z" fill="#EA366C"/>
<path d="M21.35 57.3564L16 59.925V86.5335L21.35 83.3914V59.0023V57.3564Z" fill="#E6FFFF"/>
<path d="M84.4503 59.9251V86.5335L73.0503 79.8502L74.3753 55.0872L84.4503 59.9251Z" fill="#E6FFFF"/>
<path d="M50 84.7885L75.5 97.2574C76.8 96.3097 77.625 95.8359 78.65 94.9631V85.7362L50 72.0703V84.7885Z" fill="#E6FFFF"/>
<path d="M50 50.9727L78.65 65.5114V54.8381L50 41.0974V50.9727Z" fill="#E6FFFF"/>
<path d="M50 36.5588L78.65 51.0975V41.8705L50 28.1299V36.5588Z" fill="#E6FFFF"/>
<path d="M50.2246 67.5806L78.8746 82.1193V69.3761L50.2246 55.6355V67.5806Z" fill="#E6FFFF"/>
<path d="M58.125 29.0774L78.65 39.5013V37.1821L58.125 29.0774Z" fill="#B3DCF7"/>
<path d="M78.6501 50.1499L50.0001 36.0103L21.3501 50.1499V55.4367L50.0001 41.297L78.6501 55.4367V50.1499Z" fill="#38CEFF"/>
<path d="M78.6501 42.4436V37.1318L60.0251 27.9298L50.0001 22.9922L39.9751 27.9298L21.3501 37.1318V42.4436L50.0001 28.279L78.6501 42.4436Z" fill="#38CEFF"/>
<path d="M50.0001 55.8105L78.6501 69.9502V68.4539V64.6634L50.0001 50.4988L21.3501 64.6634V68.4539V69.9502L50.0001 55.8105Z" fill="#38CEFF"/>
<path d="M50.0001 72.1198L78.6501 86.2595V82.9677V80.9478L50.0001 66.8081L21.3501 80.9478V82.9677V86.2595L50.0001 72.1198Z" fill="#38CEFF"/>
<path d="M24.4995 97.2569C26.2197 98.2354 27.9886 99.126 29.7995 99.9252L49.9995 89.9502L70.1995 99.9252C72.0104 99.126 73.7794 98.2354 75.4995 97.2569L49.9995 84.7881L24.4995 97.2569Z" fill="#38CEFF"/>
<path d="M78.6499 69.9501V73.7656L93.0249 80.8728C93.8999 79.5511 94.7249 78.1795 95.5249 76.783L78.6749 68.4788L78.6499 69.9501Z" fill="#38CEFF"/>
<path d="M82.2249 57.2073L78.6499 55.4617V60.7485L98.4249 70.524C99.0281 69.0393 99.5538 67.5244 99.9999 65.9854L82.2249 57.2073Z" fill="#38CEFF"/>
<path d="M78.6499 86.2588V88.2788L84.1999 91.0219C85.453 89.9049 86.6463 88.7229 87.7749 87.4808L78.6499 82.967V86.2588Z" fill="#38CEFF"/>
<path d="M21.3495 69.9501V68.4788L4.49951 76.783C5.27451 78.1795 6.09951 79.5511 6.99951 80.8728L21.3745 73.7656L21.3495 69.9501Z" fill="#38CEFF"/>
<path d="M21.35 55.4617L17.775 57.2073L0 65.9854C0.446073 67.5244 0.971777 69.0393 1.575 70.524L21.35 60.7485V55.4617Z" fill="#38CEFF"/>
<path d="M21.3501 86.2588V82.967L12.2251 87.4808C13.3537 88.7229 14.547 89.9049 15.8001 91.0219L21.3501 88.2788V86.2588Z" fill="#38CEFF"/>
</svg>
