<svg width="285" height="60" viewBox="0 0 285 60" fill="none" xmlns="http://www.w3.org/2000/svg">
<path d="M53.505 24.2693C53.505 10.8628 42.975 0 30 0C23.6635 0.129777 17.6356 2.75448 13.232 7.30129C8.82838 11.8481 6.40654 17.9479 6.49502 24.2693C6.49403 28.5802 7.62673 32.8159 9.78002 36.5536L12.78 34.803V22.2793L30 13.7955L47.19 22.2793V34.8778L50.19 36.6135C52.3613 32.86 53.5046 28.6029 53.505 24.2693Z" fill="#EA366C"/>
<path d="M12.8101 34.4141L9.6001 35.9552V51.9203L12.8101 50.035V35.4016V34.4141Z" fill="#E6FFFF"/>
<path d="M50.6701 35.9555V51.9206L43.8301 47.9106L44.6251 33.0527L50.6701 35.9555Z" fill="#E6FFFF"/>
<path d="M30 50.8731L45.3 58.3544C46.08 57.7858 46.575 57.5015 47.19 56.9779V51.4417L30 43.2422V50.8731Z" fill="#E6FFFF"/>
<path d="M30 30.5834L47.19 39.3066V32.9026L30 24.6582V30.5834Z" fill="#E6FFFF"/>
<path d="M30 21.9353L47.19 30.6585V25.1223L30 16.8779V21.9353Z" fill="#E6FFFF"/>
<path d="M30.1348 40.5479L47.3248 49.2711V41.6252L30.1348 33.3809V40.5479Z" fill="#E6FFFF"/>
<path d="M34.875 17.4463L47.19 23.7007V22.3091L34.875 17.4463Z" fill="#B3DCF7"/>
<path d="M47.1901 30.0902L30.0001 21.6064L12.8101 30.0902V33.2623L30.0001 24.7785L47.1901 33.2623V30.0902Z" fill="#38CEFF"/>
<path d="M47.1901 25.4657V22.2787L36.0151 16.7575L30.0001 13.7949L23.9851 16.7575L12.8101 22.2787V25.4657L30.0001 16.967L47.1901 25.4657Z" fill="#38CEFF"/>
<path d="M30.0001 33.4859L47.1901 41.9697V41.0719V38.7976L30.0001 30.2988L12.8101 38.7976V41.0719V41.9697L30.0001 33.4859Z" fill="#38CEFF"/>
<path d="M30.0001 43.272L47.1901 51.7558V49.7807V48.5687L30.0001 40.085L12.8101 48.5687V49.7807V51.7558L30.0001 43.272Z" fill="#38CEFF"/>
<path d="M14.6997 58.3543C15.7318 58.9414 16.7932 59.4758 17.8797 59.9553L29.9997 53.9703L42.1197 59.9553C43.2062 59.4758 44.2676 58.9414 45.2997 58.3543L29.9997 50.873L14.6997 58.3543Z" fill="#38CEFF"/>
<path d="M47.1899 41.9697V44.259L55.8149 48.5233C56.3399 47.7303 56.8349 46.9074 57.3149 46.0695L47.2049 41.0869L47.1899 41.9697Z" fill="#38CEFF"/>
<path d="M49.3349 34.3247L47.1899 33.2773V36.4494L59.0549 42.3148C59.4169 41.4239 59.7323 40.515 59.9999 39.5916L49.3349 34.3247Z" fill="#38CEFF"/>
<path d="M47.1899 51.7553V52.9673L50.5199 54.6132C51.2718 53.943 51.9878 53.2338 52.6649 52.4885L47.1899 49.7803V51.7553Z" fill="#38CEFF"/>
<path d="M12.8097 41.9697V41.0869L2.69971 46.0695C3.16471 46.9074 3.65971 47.7303 4.19971 48.5233L12.8247 44.259L12.8097 41.9697Z" fill="#38CEFF"/>
<path d="M12.81 33.2773L10.665 34.3247L0 39.5916C0.267644 40.515 0.583066 41.4239 0.945 42.3148L12.81 36.4494V33.2773Z" fill="#38CEFF"/>
<path d="M12.81 51.7553V49.7803L7.33496 52.4885C8.0121 53.2338 8.72809 53.943 9.47996 54.6132L12.81 52.9673V51.7553Z" fill="#38CEFF"/>
<g clip-path="url(#clip0)">
<path d="M75 38.0393V37.6785L76.8989 36.7481V24.2913L75 23.3608V23H87.4188V26.9497H87.0581L85.368 24.2533H80.3739V29.6462H83.8869L85.1591 27.7473H85.5199V32.8743H85.1591L83.8869 30.9754H80.3739V36.862H85.9187L87.6847 33.463H88.0645V38.0393H75Z" fill="#38CEFF"/>
<path d="M94.9763 38.1912C94.2086 38.1985 93.443 38.1092 92.6976 37.9254C92.043 37.7382 91.4073 37.4902 90.7987 37.1848L90.5898 33.9567H90.9506L92.5267 36.3873C93.2359 36.8361 94.0612 37.0672 94.9004 37.0519C95.5132 37.0838 96.1216 36.9317 96.6474 36.6151C96.8562 36.4728 97.0251 36.2795 97.1381 36.0535C97.2511 35.8275 97.3044 35.5763 97.293 35.3239C97.2893 34.9837 97.1686 34.6551 96.9512 34.3934C96.6433 34.0807 96.2835 33.8237 95.8878 33.6338L93.818 32.6654C93.015 32.324 92.2958 31.8122 91.7102 31.1653C91.2437 30.5492 91.0025 29.7919 91.0266 29.0195C91.036 28.3343 91.262 27.6696 91.6722 27.1206C92.1202 26.5042 92.7139 26.0084 93.4002 25.6774C94.1273 25.3015 94.9365 25.1123 95.7549 25.1267C96.3947 25.1266 97.0322 25.2031 97.6538 25.3546C98.236 25.5065 98.7973 25.7298 99.3248 26.0192L99.6856 29.0195H99.3248L97.6538 26.5699C97.412 26.4279 97.1492 26.3254 96.8752 26.2661C96.5526 26.1858 96.2198 26.1538 95.8878 26.1711C95.3616 26.1433 94.8428 26.305 94.4256 26.6269C94.2395 26.7811 94.0913 26.976 93.9925 27.1966C93.8937 27.4172 93.847 27.6576 93.856 27.8992C93.8477 28.2114 93.941 28.5179 94.1218 28.7726C94.3597 29.0663 94.6575 29.3058 94.9953 29.4752C95.3941 29.7031 95.9258 29.969 96.5714 30.2918C97.2669 30.6221 97.9338 31.0095 98.5652 31.4501C99.0324 31.7792 99.4214 32.2071 99.7046 32.7034C99.952 33.2184 100.076 33.7842 100.065 34.3554C100.078 35.1028 99.8372 35.8325 99.3818 36.4252C98.8905 37.051 98.2322 37.525 97.4829 37.7925C96.6817 38.0889 95.8299 38.2244 94.9763 38.1912Z" fill="#38CEFF"/>
<path d="M104.585 38.039V37.6782L106.674 36.9186V26.4367H103.844L102.325 29.5888H101.964V25.2783H114.725V29.5888H114.345L112.807 26.4367H109.978V36.9186L112.105 37.6782V38.039H104.585Z" fill="#38CEFF"/>
<path d="M115.143 38.0386V37.6779L116.32 37.0132L121.39 25.1641H123.289L128.283 36.8803L129.689 37.6779V38.0386H123.346V37.6779L124.979 36.9942L123.669 33.8611H119.074L117.764 36.9942L119.397 37.6779V38.0386H115.143ZM119.549 32.7027H123.175L121.277 28.3542L119.549 32.7027Z" fill="#38CEFF"/>
<path d="M132.784 38.039V37.6782L134.891 36.9186V26.4367H132.062L130.524 29.5888H130.163V25.2783H142.924V29.5888H142.563L141.006 26.4367H138.195V36.9186L140.303 37.6782V38.039H132.784Z" fill="#38CEFF"/>
<path d="M144.747 38.039V37.6782L146.437 36.9186V26.3987L144.747 25.6391V25.2783H155.761V28.6963H155.4L153.919 26.4367H149.76V30.8991H152.703L153.748 29.266H154.09V33.5955H153.748L152.703 31.9815H149.76V36.8806H154.356L155.932 33.9373H156.311V38.039H144.747Z" fill="#38CEFF"/>
<path d="M167.04 38.0393V37.6785L169.451 36.7481V24.2533H166.147L164.248 28.0511H163.888V23H178.224V28.0131H177.864L175.965 24.2153H172.889V36.7481L175.3 37.6785V38.0393H167.04Z" fill="#38CEFF"/>
<path d="M187.13 38.1918C185.896 38.2185 184.677 37.9171 183.598 37.3183C182.589 36.7696 181.748 35.9554 181.168 34.9637C180.565 33.9334 180.257 32.7579 180.275 31.5646C180.26 30.3717 180.568 29.1969 181.168 28.1656C181.752 27.1721 182.591 26.3527 183.598 25.7919C184.694 25.2304 185.908 24.9375 187.14 24.9375C188.371 24.9375 189.585 25.2304 190.681 25.7919C191.697 26.347 192.544 27.1673 193.131 28.1656C193.731 29.1969 194.039 30.3717 194.023 31.5646C194.042 32.7579 193.733 33.9334 193.131 34.9637C192.548 35.9604 191.7 36.7756 190.681 37.3183C189.596 37.9195 188.37 38.221 187.13 38.1918ZM187.453 37.0145C187.924 37.0158 188.386 36.8894 188.791 36.6486C189.196 36.4078 189.527 36.0618 189.751 35.6473C190.338 34.5725 190.62 33.3578 190.567 32.1343C190.584 31.0784 190.431 30.0267 190.112 29.0201C189.861 28.212 189.41 27.4803 188.801 26.8933C188.296 26.3936 187.613 26.1138 186.902 26.1147C186.29 26.1098 185.697 26.3255 185.231 26.7224C184.721 27.1895 184.336 27.7771 184.111 28.4314C183.832 29.2501 183.697 30.1111 183.712 30.9759C183.702 32.0328 183.862 33.0843 184.187 34.0902C184.436 34.9254 184.893 35.6835 185.516 36.2929C186.036 36.7967 186.729 37.0822 187.453 37.0904V37.0145Z" fill="#38CEFF"/>
<path d="M203.822 38.1918C202.616 38.2321 201.419 37.9848 200.328 37.4702C199.317 36.9607 198.464 36.1862 197.859 35.2295C197.223 34.2401 196.899 33.0824 196.929 31.9064C196.916 30.9439 197.117 29.9906 197.517 29.115C197.91 28.2804 198.473 27.5367 199.169 26.9313C199.875 26.3112 200.694 25.834 201.581 25.5261C202.512 25.1875 203.496 25.0202 204.486 25.0324C205.33 25.015 206.172 25.1043 206.993 25.2982C207.644 25.4656 208.279 25.6879 208.892 25.9629L209.101 29.3809H208.721L206.936 26.7984C206.591 26.5732 206.222 26.3885 205.835 26.2477C205.456 26.15 205.067 26.1052 204.676 26.1148C203.808 26.0747 202.949 26.3143 202.227 26.7984C201.551 27.2748 201.024 27.9333 200.707 28.6973C200.388 29.6175 200.259 30.593 200.328 31.5646C200.261 32.9858 200.654 34.3906 201.448 35.5713C201.813 36.0587 202.29 36.4512 202.839 36.7155C203.387 36.9799 203.992 37.1085 204.6 37.0905C205.016 37.085 205.43 37.0341 205.835 36.9385V33.4635L204.012 32.4951V32.2293H210.468V32.4951L209.006 33.4066V36.6537C208.584 37.0048 208.11 37.2868 207.601 37.4892C206.99 37.7465 206.353 37.9375 205.702 38.0589C205.081 38.1627 204.451 38.2072 203.822 38.1918Z" fill="#38CEFF"/>
<path d="M212.158 38.039V37.6782L213.848 36.9186V26.3987L212.158 25.6391V25.2783H223.115V28.6963H222.754L221.273 26.4367H217.171V30.8991H220.115L221.216 29.266H221.558V33.5955H221.216L220.172 31.9815H217.171V36.8806H221.767L223.343 33.9373H223.704V38.039H212.158Z" fill="#38CEFF"/>
<path d="M228.337 38.039V37.6782L230.426 36.9186V26.4367H227.596L226.077 29.5888H225.716V25.2783H238.477V29.5888H238.116L236.559 26.4367H233.73V36.9186L235.856 37.6782V38.039H228.337Z" fill="#38CEFF"/>
<path d="M240.3 38.039V37.6782L241.99 36.9186V26.3987L240.3 25.6391V25.2783H246.889V25.6391L245.313 26.3987V30.8801H250.421V26.3987L248.845 25.6391V25.2783H255.396V25.6391L253.744 26.3987V36.9186L255.396 37.6782V38.039H248.845V37.6782L250.421 36.9186V32.0384H245.313V36.9186L246.889 37.6782V38.039H240.3Z" fill="#38CEFF"/>
<path d="M257.39 38.039V37.6782L259.08 36.9186V26.3987L257.39 25.6391V25.2783H268.384V28.6963H268.024L266.542 26.4367H262.403V30.8991H265.327L266.39 29.266H266.789V33.5955H266.447L265.384 31.9815H262.403V36.8806H266.998L268.574 33.9373H268.935V38.039H257.39Z" fill="#38CEFF"/>
<path d="M271.119 38.0392V37.6784L272.809 36.9189V26.3989L271.119 25.6394V25.2786H278.183C279.331 25.2212 280.469 25.5125 281.449 26.1141C281.824 26.3572 282.132 26.6926 282.341 27.0882C282.551 27.4837 282.655 27.9263 282.645 28.3738C282.645 29.779 281.79 30.7664 280.081 31.3551L283.594 36.9379L285.076 37.6784V38.0392H280.366L277.062 32.2286H276.208V36.8999L277.67 37.6784V38.0392H271.119ZM276.815 26.323H276.17V31.1652H276.872C277.205 31.1915 277.539 31.1438 277.851 31.0256C278.163 30.9074 278.445 30.7216 278.676 30.4816C279.077 29.9755 279.279 29.341 279.246 28.6966C279.289 28.3662 279.255 28.0302 279.144 27.7157C279.034 27.4012 278.852 27.117 278.611 26.886C278.371 26.655 278.08 26.4837 277.762 26.3859C277.443 26.2881 277.106 26.2666 276.777 26.323H276.815Z" fill="#38CEFF"/>
</g>
<defs>
<clipPath id="clip0">
<rect width="210" height="15.2672" fill="white" transform="translate(75 23)"/>
</clipPath>
</defs>
</svg>
