<svg width="285" height="60" viewBox="0 0 285 60" fill="none" xmlns="http://www.w3.org/2000/svg">
<path d="M53.505 24.2693C53.505 10.8628 42.975 0 30 0C23.6635 0.129777 17.6356 2.75448 13.232 7.30129C8.82838 11.8481 6.40654 17.9479 6.49502 24.2693C6.49403 28.5802 7.62673 32.8159 9.78002 36.5536L12.78 34.803V22.2793L30 13.7955L47.19 22.2793V34.8778L50.19 36.6135C52.3613 32.86 53.5046 28.6029 53.505 24.2693Z" fill="#EA366C"/>
<path d="M12.8101 34.4141L9.6001 35.9552V51.9203L12.8101 50.035V35.4016V34.4141Z" fill="#E6FFFF"/>
<path d="M50.6701 35.9555V51.9206L43.8301 47.9106L44.6251 33.0527L50.6701 35.9555Z" fill="#E6FFFF"/>
<path d="M30 50.8731L45.3 58.3544C46.08 57.7858 46.575 57.5015 47.19 56.9779V51.4417L30 43.2422V50.8731Z" fill="#E6FFFF"/>
<path d="M30 30.5834L47.19 39.3066V32.9026L30 24.6582V30.5834Z" fill="#E6FFFF"/>
<path d="M30 21.9353L47.19 30.6585V25.1223L30 16.8779V21.9353Z" fill="#E6FFFF"/>
<path d="M30.1348 40.5479L47.3248 49.2711V41.6252L30.1348 33.3809V40.5479Z" fill="#E6FFFF"/>
<path d="M34.875 17.4463L47.19 23.7007V22.3091L34.875 17.4463Z" fill="#B3DCF7"/>
<path d="M47.1901 30.0902L30.0001 21.6064L12.8101 30.0902V33.2623L30.0001 24.7785L47.1901 33.2623V30.0902Z" fill="#38CEFF"/>
<path d="M47.1901 25.4657V22.2787L36.0151 16.7575L30.0001 13.7949L23.9851 16.7575L12.8101 22.2787V25.4657L30.0001 16.967L47.1901 25.4657Z" fill="#38CEFF"/>
<path d="M30.0001 33.4859L47.1901 41.9697V41.0719V38.7976L30.0001 30.2988L12.8101 38.7976V41.0719V41.9697L30.0001 33.4859Z" fill="#38CEFF"/>
<path d="M30.0001 43.272L47.1901 51.7558V49.7807V48.5687L30.0001 40.085L12.8101 48.5687V49.7807V51.7558L30.0001 43.272Z" fill="#38CEFF"/>
<path d="M14.6997 58.3543C15.7318 58.9414 16.7932 59.4758 17.8797 59.9553L29.9997 53.9703L42.1197 59.9553C43.2062 59.4758 44.2676 58.9414 45.2997 58.3543L29.9997 50.873L14.6997 58.3543Z" fill="#38CEFF"/>
<path d="M47.1899 41.9697V44.259L55.8149 48.5233C56.3399 47.7303 56.8349 46.9074 57.3149 46.0695L47.2049 41.0869L47.1899 41.9697Z" fill="#38CEFF"/>
<path d="M49.3349 34.3247L47.1899 33.2773V36.4494L59.0549 42.3148C59.4169 41.4239 59.7323 40.515 59.9999 39.5916L49.3349 34.3247Z" fill="#38CEFF"/>
<path d="M47.1899 51.7553V52.9673L50.5199 54.6132C51.2718 53.943 51.9878 53.2338 52.6649 52.4885L47.1899 49.7803V51.7553Z" fill="#38CEFF"/>
<path d="M12.8097 41.9697V41.0869L2.69971 46.0695C3.16471 46.9074 3.65971 47.7303 4.19971 48.5233L12.8247 44.259L12.8097 41.9697Z" fill="#38CEFF"/>
<path d="M12.81 33.2773L10.665 34.3247L0 39.5916C0.267644 40.515 0.583066 41.4239 0.945 42.3148L12.81 36.4494V33.2773Z" fill="#38CEFF"/>
<path d="M12.81 51.7553V49.7803L7.33496 52.4885C8.0121 53.2338 8.72809 53.943 9.47996 54.6132L12.81 52.9673V51.7553Z" fill="#38CEFF"/>
<path d="M75 36.0638V35.7504L76.7174 34.9422V24.1216L75 23.3134V23H86.232V26.4309H85.9057L84.3772 24.0886H79.8603V28.7731H83.0376L84.1883 27.1237H84.5146V31.5772H84.1883L83.0376 29.9278H79.8603V35.0411H84.8753L86.4725 32.0886H86.816V36.0638H75Z" fill="#38CEFF"/>
<path d="M93.0674 36.1957C92.373 36.202 91.6806 36.1245 91.0065 35.9648C90.4144 35.8022 89.8394 35.5868 89.289 35.3215L89.1001 32.5174H89.4264L90.8519 34.6287C91.4933 35.0186 92.2397 35.2193 92.9987 35.206C93.553 35.2338 94.1032 35.1016 94.5787 34.8266C94.7676 34.703 94.9204 34.5351 95.0226 34.3388C95.1248 34.1424 95.173 33.9243 95.1626 33.705C95.1593 33.4095 95.0502 33.1241 94.8535 32.8968C94.575 32.6251 94.2496 32.4019 93.8917 32.237L92.0197 31.3957C91.2935 31.0992 90.643 30.6546 90.1134 30.0927C89.6915 29.5575 89.4733 28.8997 89.4951 28.2288C89.5036 27.6335 89.708 27.0562 90.079 26.5793C90.4842 26.0439 91.0212 25.6132 91.6419 25.3257C92.2995 24.9992 93.0313 24.8348 93.7715 24.8473C94.3502 24.8472 94.9268 24.9137 95.489 25.0453C96.0156 25.1773 96.5232 25.3712 97.0003 25.6226L97.3266 28.2288H97.0003L95.489 26.1009C95.2703 25.9776 95.0326 25.8885 94.7848 25.837C94.493 25.7673 94.192 25.7395 93.8917 25.7546C93.4158 25.7303 92.9466 25.8708 92.5693 26.1504C92.401 26.2844 92.2669 26.4537 92.1776 26.6453C92.0882 26.837 92.046 27.0458 92.0541 27.2556C92.0466 27.5268 92.131 27.7931 92.2945 28.0143C92.5097 28.2694 92.779 28.4774 93.0846 28.6246C93.4452 28.8226 93.9261 29.0535 94.51 29.3339C95.1391 29.6208 95.7422 29.9574 96.3133 30.3401C96.7359 30.6259 97.0877 30.9976 97.3438 31.4287C97.5676 31.8761 97.6793 32.3675 97.6701 32.8638C97.6817 33.513 97.4637 34.1468 97.0518 34.6617C96.6075 35.2053 96.0121 35.617 95.3344 35.8493C94.6098 36.1069 93.8394 36.2246 93.0674 36.1957V36.1957Z" fill="#38CEFF"/>
<path d="M101.758 36.0639V35.7505L103.647 35.0907V25.9857H101.088L99.714 28.7238H99.3877V24.9795H110.929V28.7238H110.585L109.194 25.9857H106.635V35.0907L108.559 35.7505V36.0639H101.758Z" fill="#38CEFF"/>
<path d="M111.307 36.0633V35.7499L112.371 35.1726L116.957 24.8799H118.674L123.191 35.0571L124.462 35.7499V36.0633H118.726V35.7499L120.203 35.1561L119.018 32.4345H114.862L113.677 35.1561L115.154 35.7499V36.0633H111.307ZM115.291 31.4283H118.571L116.854 27.651L115.291 31.4283Z" fill="#38CEFF"/>
<path d="M127.262 36.0639V35.7505L129.168 35.0907V25.9857H126.609L125.218 28.7238H124.892V24.9795H136.433V28.7238H136.106L134.698 25.9857H132.156V35.0907L134.063 35.7505V36.0639H127.262Z" fill="#38CEFF"/>
<path d="M138.082 36.0639V35.7505L139.61 35.0907V25.9527L138.082 25.2929V24.9795H148.043V27.9485H147.716L146.377 25.9857H142.616V29.8619H145.278L146.222 28.4434H146.531V32.2042H146.222L145.278 30.8021H142.616V35.0577H146.772L148.197 32.5011H148.541V36.0639H138.082Z" fill="#38CEFF"/>
<path d="M158.244 36.0638V35.7504L160.425 34.9422V24.0886H157.437L155.719 27.3876H155.393V23H168.36V27.3546H168.033L166.316 24.0557H163.534V34.9422L165.715 35.7504V36.0638H158.244Z" fill="#38CEFF"/>
<path d="M176.415 36.1958C175.299 36.2191 174.196 35.9572 173.22 35.4371C172.307 34.9605 171.547 34.2532 171.022 33.3918C170.477 32.4969 170.198 31.4757 170.215 30.4392C170.2 29.403 170.479 28.3825 171.022 27.4867C171.55 26.6237 172.309 25.9119 173.22 25.4248C174.211 24.937 175.309 24.6826 176.423 24.6826C177.537 24.6826 178.635 24.937 179.626 25.4248C180.545 25.9069 181.311 26.6195 181.842 27.4867C182.384 28.3825 182.663 29.403 182.649 30.4392C182.666 31.4757 182.386 32.4969 181.842 33.3918C181.315 34.2576 180.548 34.9657 179.626 35.4371C178.645 35.9593 177.536 36.2212 176.415 36.1958V36.1958ZM176.706 35.1732C177.132 35.1744 177.551 35.0645 177.917 34.8554C178.283 34.6462 178.583 34.3456 178.785 33.9856C179.316 33.052 179.571 31.9968 179.523 30.934C179.539 30.0169 179.399 29.1033 179.111 28.2289C178.885 27.5269 178.477 26.8914 177.926 26.3815C177.469 25.9475 176.851 25.7044 176.208 25.7052C175.655 25.7009 175.118 25.8883 174.697 26.2331C174.235 26.6388 173.887 27.1492 173.684 27.7176C173.431 28.4287 173.309 29.1766 173.323 29.9279C173.314 30.8459 173.459 31.7593 173.753 32.633C173.977 33.3586 174.391 34.0171 174.955 34.5464C175.425 34.984 176.052 35.232 176.706 35.2392V35.1732Z" fill="#38CEFF"/>
<path d="M191.511 36.1963C190.421 36.2313 189.337 36.0165 188.351 35.5695C187.437 35.127 186.665 34.4542 186.118 33.6232C185.543 32.7637 185.25 31.7581 185.277 30.7366C185.265 29.9005 185.447 29.0724 185.809 28.3119C186.165 27.5868 186.673 26.9408 187.303 26.415C187.941 25.8763 188.682 25.4618 189.484 25.1944C190.326 24.9003 191.216 24.755 192.112 24.7655C192.875 24.7504 193.637 24.828 194.379 24.9964C194.968 25.1418 195.542 25.3349 196.097 25.5738L196.285 28.5428H195.942L194.328 26.2995C194.016 26.1039 193.681 25.9434 193.331 25.8212C192.989 25.7363 192.637 25.6974 192.284 25.7057C191.498 25.6709 190.722 25.879 190.068 26.2995C189.457 26.7133 188.98 27.2853 188.694 27.949C188.406 28.7483 188.289 29.5957 188.351 30.4397C188.291 31.6742 188.646 32.8945 189.364 33.9201C189.694 34.3434 190.126 34.6843 190.622 34.914C191.118 35.1437 191.665 35.2553 192.215 35.2396C192.591 35.2349 192.965 35.1907 193.331 35.1077V32.0892L191.683 31.2479V31.017H197.522V31.2479L196.2 32.0397V34.8603C195.819 35.1652 195.39 35.4102 194.929 35.586C194.376 35.8095 193.8 35.9754 193.211 36.0809C192.65 36.171 192.08 36.2097 191.511 36.1963Z" fill="#38CEFF"/>
<path d="M199.051 36.0639V35.7505L200.579 35.0907V25.9527L199.051 25.2929V24.9795H208.96V27.9485H208.634L207.294 25.9857H203.585V29.8619H206.247L207.243 28.4434H207.552V32.2042H207.243L206.298 30.8021H203.585V35.0577H207.741L209.166 32.5011H209.493V36.0639H199.051Z" fill="#38CEFF"/>
<path d="M213.683 36.0639V35.7505L215.572 35.0907V25.9857H213.013L211.639 28.7238H211.313V24.9795H222.854V28.7238H222.528L221.12 25.9857H218.561V35.0907L220.484 35.7505V36.0639H213.683Z" fill="#38CEFF"/>
<path d="M224.503 36.0639V35.7505L226.031 35.0907V25.9527L224.503 25.2929V24.9795H230.462V25.2929L229.037 25.9527V29.8454H233.657V25.9527L232.231 25.2929V24.9795H238.157V25.2929L236.662 25.9527V35.0907L238.157 35.7505V36.0639H232.231V35.7505L233.657 35.0907V30.8516H229.037V35.0907L230.462 35.7505V36.0639H224.503Z" fill="#38CEFF"/>
<path d="M239.959 36.0639V35.7505L241.488 35.0907V25.9527L239.959 25.2929V24.9795H249.903V27.9485H249.577L248.238 25.9857H244.494V29.8619H247.138L248.1 28.4434H248.461V32.2042H248.152L247.19 30.8021H244.494V35.0577H248.65L250.075 32.5011H250.402V36.0639H239.959Z" fill="#38CEFF"/>
<path d="M252.376 36.0633V35.7499L253.905 35.0901V25.952L252.376 25.2922V24.9788H258.765C259.804 24.929 260.833 25.182 261.719 25.7046C262.059 25.9158 262.337 26.2071 262.526 26.5507C262.716 26.8943 262.81 27.2788 262.801 27.6675C262.801 28.8881 262.028 29.7458 260.483 30.2571L263.66 35.1066L265 35.7499V36.0633H260.74L257.752 31.0159H256.979V35.0736L258.302 35.7499V36.0633H252.376ZM257.529 25.886H256.945V30.0922H257.58C257.881 30.115 258.183 30.0736 258.465 29.9709C258.747 29.8682 259.002 29.7069 259.212 29.4984C259.574 29.0587 259.757 28.5076 259.727 27.9479C259.766 27.6609 259.735 27.369 259.635 27.0958C259.536 26.8226 259.37 26.5758 259.153 26.3751C258.936 26.1745 258.673 26.0257 258.385 25.9407C258.096 25.8558 257.791 25.837 257.494 25.886H257.529Z" fill="#38CEFF"/>
</svg>
