<svg width="40" height="40" viewBox="0 0 40 40" fill="none" xmlns="http://www.w3.org/2000/svg">
<g clip-path="url(#clip0)">
<path d="M1.3042 21.3044H26.5218C27.2418 21.3044 27.8262 20.72 27.8262 20C27.8262 19.28 27.2418 18.6957 26.5218 18.6957H1.3042C0.584192 18.6957 -0.000154495 19.28 -0.000154495 20C-0.000154495 20.72 0.584192 21.3044 1.3042 21.3044Z" fill="#00AAE1"/>
<path d="M19.5648 28.2607C19.8988 28.2607 20.2325 28.134 20.4867 27.8783L27.4431 20.9219C27.9526 20.412 27.9526 19.586 27.4431 19.0765L20.4867 12.12C19.9771 11.6105 19.1511 11.6105 18.6413 12.12C18.1318 12.6296 18.1318 13.4556 18.6413 13.9651L24.6761 20L18.6413 26.0348C18.1318 26.5443 18.1318 27.3704 18.6413 27.8799C18.897 28.134 19.231 28.2607 19.5648 28.2607Z" fill="#00AAE1"/>
<path d="M20.8695 39.1306C31.4173 39.1306 40 30.5479 40 20C40 9.45222 31.4173 0.869507 20.8695 0.869507C12.9548 0.869507 5.9669 5.6312 3.06428 13.0019C2.79997 13.6713 3.13052 14.4279 3.79989 14.6938C4.46958 14.9549 5.2262 14.6295 5.4921 13.9566C7.99826 7.59123 14.0347 3.4782 20.8695 3.4782C29.9792 3.4782 37.3913 10.8906 37.3913 20C37.3913 29.1095 29.9792 36.5219 20.8695 36.5219C14.0347 36.5219 7.99826 32.4089 5.4921 26.0454C5.22779 25.3722 4.47117 25.0471 3.79989 25.3079C3.13052 25.5722 2.79997 26.3304 3.06428 27.0001C5.9669 34.3689 12.9548 39.1306 20.8695 39.1306Z" fill="#00AAE1"/>
</g>
<defs>
<clipPath id="clip0">
<rect width="40" height="40" fill="white" transform="matrix(-1 0 0 1 40 0)"/>
</clipPath>
</defs>
</svg>
