<svg width="108" height="108" viewBox="0 0 108 108" fill="none" xmlns="http://www.w3.org/2000/svg">
<g filter="url(#filter0_d)">
<path d="M93.1752 40.4489C93.1752 18.1047 75.6252 0 54.0002 0C43.4393 0.216295 33.3928 4.5908 26.0535 12.1688C18.7141 19.7468 14.6777 29.9131 14.8252 40.4489C14.8236 47.6337 16.7114 54.6932 20.3002 60.9227L25.3002 58.005V37.1322L54.0002 22.9925L82.6502 37.1322V58.1297L87.6502 61.0224C91.269 54.7667 93.1744 47.6714 93.1752 40.4489Z" fill="#EA366C"/>
<path d="M25.35 57.3564L20 59.925V86.5335L25.35 83.3914V59.0023V57.3564Z" fill="#E6FFFF"/>
<path d="M88.4503 59.9251V86.5335L77.0503 79.8502L78.3753 55.0872L88.4503 59.9251Z" fill="#E6FFFF"/>
<path d="M54 84.7885L79.5 97.2574C80.8 96.3097 81.625 95.8359 82.65 94.9631V85.7362L54 72.0703V84.7885Z" fill="#E6FFFF"/>
<path d="M54 50.9727L82.65 65.5114V54.8381L54 41.0974V50.9727Z" fill="#E6FFFF"/>
<path d="M54 36.5588L82.65 51.0975V41.8705L54 28.1299V36.5588Z" fill="#E6FFFF"/>
<path d="M54.2246 67.5806L82.8746 82.1193V69.3761L54.2246 55.6355V67.5806Z" fill="#E6FFFF"/>
<path d="M62.125 29.0774L82.65 39.5013V37.1821L62.125 29.0774Z" fill="#B3DCF7"/>
<path d="M82.6501 50.1499L54.0001 36.0103L25.3501 50.1499V55.4367L54.0001 41.297L82.6501 55.4367V50.1499Z" fill="#38CEFF"/>
<path d="M82.6501 42.4436V37.1318L64.0251 27.9298L54.0001 22.9922L43.9751 27.9298L25.3501 37.1318V42.4436L54.0001 28.279L82.6501 42.4436Z" fill="#38CEFF"/>
<path d="M54.0001 55.8105L82.6501 69.9502V68.4539V64.6634L54.0001 50.4988L25.3501 64.6634V68.4539V69.9502L54.0001 55.8105Z" fill="#38CEFF"/>
<path d="M54.0001 72.1198L82.6501 86.2595V82.9677V80.9478L54.0001 66.8081L25.3501 80.9478V82.9677V86.2595L54.0001 72.1198Z" fill="#38CEFF"/>
<path d="M28.4995 97.2569C30.2197 98.2354 31.9886 99.126 33.7995 99.9252L53.9995 89.9502L74.1995 99.9252C76.0104 99.126 77.7794 98.2354 79.4995 97.2569L53.9995 84.7881L28.4995 97.2569Z" fill="#38CEFF"/>
<path d="M82.6499 69.9501V73.7656L97.0249 80.8728C97.8999 79.5511 98.7249 78.1795 99.5249 76.783L82.6749 68.4788L82.6499 69.9501Z" fill="#38CEFF"/>
<path d="M86.2249 57.2073L82.6499 55.4617V60.7485L102.425 70.524C103.028 69.0393 103.554 67.5244 104 65.9854L86.2249 57.2073Z" fill="#38CEFF"/>
<path d="M82.6499 86.2588V88.2788L88.1999 91.0219C89.453 89.9049 90.6463 88.7229 91.7749 87.4808L82.6499 82.967V86.2588Z" fill="#38CEFF"/>
<path d="M25.3495 69.9501V68.4788L8.49951 76.783C9.27451 78.1795 10.0995 79.5511 10.9995 80.8728L25.3745 73.7656L25.3495 69.9501Z" fill="#38CEFF"/>
<path d="M25.35 55.4617L21.775 57.2073L4 65.9854C4.44607 67.5244 4.97178 69.0393 5.575 70.524L25.35 60.7485V55.4617Z" fill="#38CEFF"/>
<path d="M25.3501 86.2588V82.967L16.2251 87.4808C17.3537 88.7229 18.547 89.9049 19.8001 91.0219L25.3501 88.2788V86.2588Z" fill="#38CEFF"/>
</g>
<defs>
<filter id="filter0_d" x="0" y="0" width="108" height="108" filterUnits="userSpaceOnUse" color-interpolation-filters="sRGB">
<feFlood flood-opacity="0" result="BackgroundImageFix"/>
<feColorMatrix in="SourceAlpha" type="matrix" values="0 0 0 0 0 0 0 0 0 0 0 0 0 0 0 0 0 0 127 0"/>
<feOffset dy="4"/>
<feGaussianBlur stdDeviation="2"/>
<feColorMatrix type="matrix" values="0 0 0 0 0 0 0 0 0 0 0 0 0 0 0 0 0 0 0.25 0"/>
<feBlend mode="normal" in2="BackgroundImageFix" result="effect1_dropShadow"/>
<feBlend mode="normal" in="SourceGraphic" in2="effect1_dropShadow" result="shape"/>
</filter>
</defs>
</svg>
