<svg width="38" height="38" viewBox="0 0 38 38" fill="none" xmlns="http://www.w3.org/2000/svg">
<path d="M19 20.2499C17.5166 20.2499 16.0666 19.81 14.8332 18.9859C13.5999 18.1618 12.6386 16.9904 12.0709 15.62C11.5032 14.2496 11.3547 12.7416 11.6441 11.2867C11.9335 9.83184 12.6478 8.49547 13.6967 7.44658C14.7456 6.39769 16.082 5.68338 17.5368 5.39399C18.9917 5.1046 20.4997 5.25313 21.8701 5.82078C23.2406 6.38844 24.4119 7.34973 25.236 8.5831C26.0601 9.81647 26.5 11.2665 26.5 12.7499C26.5 14.739 25.7098 16.6466 24.3033 18.0532C22.8968 19.4597 20.9891 20.2499 19 20.2499ZM19 7.74988C18.0111 7.74988 17.0444 8.04312 16.2222 8.59253C15.3999 9.14194 14.759 9.92283 14.3806 10.8365C14.0022 11.7501 13.9032 12.7554 14.0961 13.7253C14.289 14.6952 14.7652 15.5861 15.4645 16.2854C16.1637 16.9847 17.0546 17.4609 18.0246 17.6538C18.9945 17.8467 19.9998 17.7477 20.9134 17.3693C21.8271 16.9908 22.6079 16.35 23.1574 15.5277C23.7068 14.7055 24 13.7388 24 12.7499C24 11.4238 23.4732 10.152 22.5355 9.21434C21.5979 8.27666 20.3261 7.74988 19 7.74988Z" fill="#00AAE1"/>
<path d="M18.9998 37.7499C16.2279 37.7481 13.4908 37.1316 10.9857 35.945C8.48057 34.7584 6.26972 33.0311 4.5123 30.8874L3.8623 30.0874L4.5123 29.2999C6.2712 27.1591 8.4827 25.4346 10.9877 24.2507C13.4928 23.0667 16.2291 22.4526 18.9998 22.4526C21.7705 22.4526 24.5068 23.0667 27.0119 24.2507C29.5169 25.4346 31.7284 27.1591 33.4873 29.2999L34.1373 30.0874L33.4873 30.8874C31.7299 33.0311 29.519 34.7584 27.0139 35.945C24.5088 37.1316 21.7718 37.7481 18.9998 37.7499ZM7.1373 30.0999C8.6576 31.7274 10.4962 33.0251 12.539 33.9123C14.5818 34.7995 16.7852 35.2573 19.0123 35.2573C21.2394 35.2573 23.4428 34.7995 25.4856 33.9123C27.5284 33.0251 29.367 31.7274 30.8873 30.0999C29.367 28.4724 27.5284 27.1748 25.4856 26.2876C23.4428 25.4004 21.2394 24.9426 19.0123 24.9426C16.7852 24.9426 14.5818 25.4004 12.539 26.2876C10.4962 27.1748 8.6576 28.4724 7.1373 30.0999Z" fill="#00AAE1"/>
<path d="M18.9998 37.75C14.7408 37.7528 10.6076 36.3056 7.28068 33.6464C3.95374 30.9872 1.63126 27.2746 0.69549 23.1196C-0.240284 18.9646 0.266413 14.6149 2.13219 10.7862C3.99796 6.95755 7.11162 3.87818 10.9607 2.05493C14.8098 0.231682 19.1649 -0.226804 23.3093 0.754935C27.4537 1.73667 31.1403 4.10013 33.7625 7.45632C36.3846 10.8125 37.786 14.9614 37.736 19.2202C37.686 23.479 36.1876 27.5938 33.4873 30.8875C31.7299 33.0312 29.5191 34.7585 27.0139 35.9451C24.5088 37.1317 21.7718 37.7482 18.9998 37.75ZM18.9998 2.75001C15.7859 2.75001 12.6441 3.70306 9.97181 5.48863C7.29951 7.2742 5.2167 9.81211 3.98678 12.7814C2.75686 15.7507 2.43505 19.018 3.06206 22.1702C3.68907 25.3224 5.23673 28.2179 7.50934 30.4905C9.78194 32.7631 12.6774 34.3108 15.8296 34.9378C18.9818 35.5648 22.2491 35.243 25.2184 34.0131C28.1877 32.7831 30.7256 30.7003 32.5112 28.028C34.2968 25.3557 35.2498 22.214 35.2498 19C35.2498 14.6902 33.5378 10.557 30.4903 7.50953C27.4428 4.46206 23.3096 2.75001 18.9998 2.75001Z" fill="#00AAE1"/>
<path d="M5.47461 30.1C5.47461 30.1 18.0621 44.1625 30.8746 31.5L32.5246 30.1C32.5246 30.1 21.8246 19 10.9621 25.6625L5.47461 30.1Z" fill="#00AAE1"/>
<path d="M19 19C22.4518 19 25.25 16.2018 25.25 12.75C25.25 9.29822 22.4518 6.5 19 6.5C15.5482 6.5 12.75 9.29822 12.75 12.75C12.75 16.2018 15.5482 19 19 19Z" fill="#00AAE1"/>
</svg>
