<svg width="35" height="35" viewBox="0 0 35 35" fill="none" xmlns="http://www.w3.org/2000/svg">
<circle cx="17.5" cy="17.5" r="17.5" fill="#00AAE1"/>
<path d="M26.712 12.7224L26.1224 12.1328C25.9371 11.9473 25.6901 11.8453 25.4264 11.8453C25.1627 11.8453 24.9155 11.9473 24.7302 12.1328L16.4454 20.4174L11.2692 15.241C11.0839 15.0559 10.8367 14.9538 10.573 14.9538C10.3095 14.9538 10.0624 15.0559 9.87702 15.241L9.28727 15.8305C9.10185 16.0162 9 16.2635 9 16.5269C9 16.7905 9.10185 17.0377 9.28727 17.2231L15.1316 23.0671C15.1393 23.0781 15.1475 23.0883 15.157 23.0977L15.7468 23.6776C15.932 23.8623 16.1792 23.9547 16.445 23.9547H16.448C16.7119 23.9547 16.9591 23.8623 17.144 23.6776L17.734 23.0926C17.7435 23.0832 17.7515 23.0754 17.7563 23.0675L26.7119 14.1129C27.096 13.7296 27.096 13.1061 26.712 12.7224Z" fill="white"/>
</svg>
