<svg width="30" height="30" viewBox="0 0 30 30" fill="none" xmlns="http://www.w3.org/2000/svg">
<g clip-path="url(#clip0)">
<path d="M26.2344 0.878906C26.2344 0.393516 25.8409 0 25.3555 0H21.5898C21.1045 0 20.7109 0.393516 20.7109 0.878906V2.86102L26.2344 8.38447V0.878906Z" fill="#00AAE1"/>
<path d="M29.7416 14.3787L15.6205 0.257632C15.2773 -0.0855518 14.7208 -0.0855518 14.3776 0.257632L0.256474 14.3787C0.00510722 14.6301 -0.0700686 15.0081 0.0659275 15.3366C0.202041 15.665 0.52249 15.8791 0.877978 15.8791H3.76472V29.1213C3.76472 29.6067 4.15823 30.0002 4.64362 30.0002H25.3545C25.8399 30.0002 26.2334 29.6067 26.2334 29.1213V15.8791H29.1202C29.4757 15.8791 29.7962 15.665 29.9322 15.3366C30.0682 15.0081 29.993 14.6301 29.7416 14.3787ZM16.8819 23.4104H15.878V24.4143C15.878 24.8997 15.4845 25.2932 14.9991 25.2932C14.5137 25.2932 14.1202 24.8997 14.1202 24.4143V23.4104H12.1749C11.6895 23.4104 11.2959 23.0168 11.2959 22.5315C11.2959 22.0461 11.6895 21.6526 12.1749 21.6526H16.8819C17.4354 21.6526 17.8858 21.2022 17.8858 20.6487C17.8858 20.0951 17.4354 19.6447 16.8819 19.6447H13.1162C11.5934 19.6447 10.3545 18.4058 10.3545 16.883C10.3545 15.3602 11.5934 14.1213 13.1163 14.1213H14.1202V13.1174C14.1202 12.632 14.5137 12.2385 14.9991 12.2385C15.4845 12.2385 15.878 12.632 15.878 13.1174V14.1213H17.8233C18.3087 14.1213 18.7022 14.5148 18.7022 15.0002C18.7022 15.4856 18.3087 15.8791 17.8233 15.8791H13.1163C12.5627 15.8791 12.1124 16.3295 12.1124 16.8831C12.1124 17.4366 12.5627 17.887 13.1163 17.887H16.8819C18.4047 17.887 19.6436 19.1259 19.6436 20.6487C19.6436 22.1715 18.4047 23.4104 16.8819 23.4104Z" fill="#00AAE1"/>
</g>
<defs>
<clipPath id="clip0">
<rect width="30" height="30" fill="white"/>
</clipPath>
</defs>
</svg>
