<svg width="30" height="30" viewBox="0 0 30 30" fill="none" xmlns="http://www.w3.org/2000/svg">
<path d="M15 15.9374C13.8875 15.9374 12.7999 15.6075 11.8749 14.9894C10.9499 14.3713 10.2289 13.4928 9.80318 12.465C9.37744 11.4371 9.26604 10.3061 9.48309 9.21499C9.70013 8.12385 10.2359 7.12157 11.0225 6.3349C11.8092 5.54823 12.8115 5.0125 13.9026 4.79546C14.9938 4.57842 16.1248 4.68982 17.1526 5.11556C18.1804 5.5413 19.0589 6.26227 19.677 7.1873C20.2951 8.11232 20.625 9.19986 20.625 10.3124C20.625 11.8042 20.0324 13.235 18.9775 14.2898C17.9226 15.3447 16.4918 15.9374 15 15.9374ZM15 6.56238C14.2583 6.56238 13.5333 6.78231 12.9166 7.19437C12.2999 7.60642 11.8193 8.19209 11.5355 8.87731C11.2516 9.56254 11.1774 10.3165 11.3221 11.044C11.4668 11.7714 11.8239 12.4396 12.3484 12.964C12.8728 13.4885 13.541 13.8456 14.2684 13.9903C14.9958 14.135 15.7498 14.0607 16.4351 13.7769C17.1203 13.4931 17.706 13.0124 18.118 12.3958C18.5301 11.7791 18.75 11.0541 18.75 10.3124C18.75 9.31781 18.3549 8.36399 17.6517 7.66073C16.9484 6.95747 15.9946 6.56238 15 6.56238Z" fill="#00AAE1"/>
<path d="M14.9996 29.0624C12.9206 29.061 10.8679 28.5987 8.98902 27.7088C7.11018 26.8188 5.45205 25.5233 4.13398 23.9156L3.64648 23.3156L4.13398 22.7249C5.45316 21.1193 7.11178 19.826 8.99056 18.938C10.8693 18.05 12.9216 17.5895 14.9996 17.5895C17.0777 17.5895 19.1299 18.05 21.0087 18.938C22.8874 19.826 24.5461 21.1193 25.8652 22.7249L26.3527 23.3156L25.8652 23.9156C24.5472 25.5233 22.889 26.8188 21.0102 27.7088C19.1314 28.5987 17.0786 29.061 14.9996 29.0624ZM6.10273 23.3249C7.24296 24.5456 8.62192 25.5188 10.154 26.1842C11.6861 26.8496 13.3386 27.1929 15.009 27.1929C16.6793 27.1929 18.3319 26.8496 19.864 26.1842C21.396 25.5188 22.775 24.5456 23.9152 23.3249C22.775 22.1043 21.396 21.1311 19.864 20.4657C18.3319 19.8003 16.6793 19.4569 15.009 19.4569C13.3386 19.4569 11.6861 19.8003 10.154 20.4657C8.62192 21.1311 7.24296 22.1043 6.10273 23.3249Z" fill="#00AAE1"/>
<path d="M14.9996 29.0625C11.8053 29.0646 8.70547 27.9792 6.21027 25.9848C3.71506 23.9904 1.9732 21.206 1.27137 18.0897C0.569543 14.9735 0.949566 11.7111 2.3489 8.83965C3.74822 5.96816 6.08347 3.65864 8.97029 2.2912C11.8571 0.923762 15.1234 0.579897 18.2317 1.3162C21.34 2.05251 24.105 3.8251 26.0716 6.34224C28.0382 8.85938 29.0893 11.9711 29.0518 15.1651C29.0143 18.3592 27.8904 21.4454 25.8652 23.9156C24.5472 25.5234 22.8891 26.8188 21.0102 27.7088C19.1314 28.5988 17.0786 29.0611 14.9996 29.0625ZM14.9996 2.81251C12.5892 2.81251 10.2328 3.52729 8.22861 4.86647C6.22439 6.20565 4.66228 8.10908 3.73984 10.3361C2.8174 12.563 2.57605 15.0135 3.0463 17.3777C3.51656 19.7418 4.67731 21.9134 6.38176 23.6179C8.08621 25.3223 10.2578 26.4831 12.622 26.9533C14.9861 27.4236 17.4366 27.1822 19.6636 26.2598C21.8906 25.3373 23.794 23.7752 25.1332 21.771C26.4723 19.7668 27.1871 17.4105 27.1871 15C27.1871 11.7677 25.9031 8.66775 23.6175 6.38215C21.3319 4.09655 18.232 2.81251 14.9996 2.81251Z" fill="#00AAE1"/>
<path d="M4.85645 23.3251C4.85645 23.3251 14.2971 33.872 23.9064 24.3751L25.1439 23.3251C25.1439 23.3251 17.1189 15.0001 8.97207 19.997L4.85645 23.3251Z" fill="#00AAE1"/>
<path d="M15 15C17.5888 15 19.6875 12.9013 19.6875 10.3125C19.6875 7.72367 17.5888 5.625 15 5.625C12.4112 5.625 10.3125 7.72367 10.3125 10.3125C10.3125 12.9013 12.4112 15 15 15Z" fill="#00AAE1"/>
</svg>
