<svg width="30" height="30" viewBox="0 0 30 30" fill="none" xmlns="http://www.w3.org/2000/svg">
<path d="M15 15.9375C13.8875 15.9375 12.7999 15.6076 11.8749 14.9895C10.9499 14.3714 10.2289 13.4929 9.80318 12.4651C9.37744 11.4373 9.26604 10.3063 9.48309 9.21512C9.70013 8.12397 10.2359 7.12169 11.0225 6.33503C11.8092 5.54836 12.8115 5.01263 13.9026 4.79559C14.9938 4.57854 16.1248 4.68994 17.1526 5.11568C18.1804 5.54142 19.0589 6.26239 19.677 7.18742C20.2951 8.11244 20.625 9.19998 20.625 10.3125C20.625 11.8043 20.0324 13.2351 18.9775 14.29C17.9226 15.3449 16.4918 15.9375 15 15.9375ZM15 6.5625C14.2583 6.5625 13.5333 6.78243 12.9166 7.19449C12.2999 7.60654 11.8193 8.19221 11.5355 8.87744C11.2516 9.56266 11.1774 10.3167 11.3221 11.0441C11.4668 11.7715 11.8239 12.4397 12.3484 12.9641C12.8728 13.4886 13.541 13.8457 14.2684 13.9904C14.9958 14.1351 15.7498 14.0609 16.4351 13.777C17.1203 13.4932 17.706 13.0126 18.118 12.3959C18.5301 11.7792 18.75 11.0542 18.75 10.3125C18.75 9.31794 18.3549 8.36411 17.6517 7.66085C16.9484 6.95759 15.9946 6.5625 15 6.5625Z" fill="#868891"/>
<path d="M15.0001 29.0625C12.9211 29.0611 10.8683 28.5988 8.98951 27.7088C7.11067 26.8189 5.45253 25.5234 4.13447 23.9157L3.64697 23.3157L4.13447 22.725C5.45364 21.1194 7.11227 19.8261 8.99105 18.9381C10.8698 18.0501 12.922 17.5896 15.0001 17.5896C17.0781 17.5896 19.1304 18.0501 21.0091 18.9381C22.8879 19.8261 24.5466 21.1194 25.8657 22.725L26.3532 23.3157L25.8657 23.9157C24.5477 25.5234 22.8895 26.8189 21.0107 27.7088C19.1319 28.5988 17.0791 29.0611 15.0001 29.0625ZM6.10322 23.325C7.24344 24.5457 8.62241 25.5189 10.1545 26.1843C11.6866 26.8497 13.3391 27.193 15.0095 27.193C16.6798 27.193 18.3323 26.8497 19.8644 26.1843C21.3965 25.5189 22.7755 24.5457 23.9157 23.325C22.7755 22.1044 21.3965 21.1312 19.8644 20.4658C18.3323 19.8004 16.6798 19.457 15.0095 19.457C13.3391 19.457 11.6866 19.8004 10.1545 20.4658C8.62241 21.1312 7.24344 22.1044 6.10322 23.325Z" fill="#868891"/>
<path d="M15.0001 29.0626C11.8058 29.0647 8.70596 27.9792 6.21076 25.9849C3.71555 23.9905 1.97369 21.206 1.27186 18.0898C0.570031 14.9735 0.950054 11.7112 2.34938 8.83971C3.74871 5.96822 6.08396 3.6587 8.97077 2.29126C11.8576 0.923823 15.1239 0.579958 18.2322 1.31626C21.3405 2.05257 24.1055 3.82516 26.0721 6.3423C28.0387 8.85944 29.0898 11.9711 29.0523 15.1652C29.0148 18.3593 27.8909 21.4454 25.8657 23.9157C24.5477 25.5234 22.8895 26.8189 21.0107 27.7089C19.1319 28.5989 17.0791 29.0612 15.0001 29.0626ZM15.0001 2.81257C12.5897 2.81257 10.2333 3.52736 8.2291 4.86653C6.22488 6.20571 4.66277 8.10914 3.74033 10.3361C2.81789 12.5631 2.57653 15.0136 3.04679 17.3777C3.51705 19.7419 4.6778 21.9135 6.38225 23.6179C8.0867 25.3224 10.2583 26.4831 12.6224 26.9534C14.9866 27.4236 17.4371 27.1823 19.6641 26.2598C21.891 25.3374 23.7945 23.7753 25.1336 21.7711C26.4728 19.7669 27.1876 17.4105 27.1876 15.0001C27.1876 11.7677 25.9036 8.66781 23.618 6.38221C21.3324 4.09661 18.2324 2.81257 15.0001 2.81257Z" fill="#868891"/>
<path d="M4.85645 23.3251C4.85645 23.3251 14.2971 33.872 23.9064 24.3751L25.1439 23.3251C25.1439 23.3251 17.1189 15.0001 8.97207 19.997L4.85645 23.3251Z" fill="#868891"/>
<path d="M15 15C17.5888 15 19.6875 12.9013 19.6875 10.3125C19.6875 7.72367 17.5888 5.625 15 5.625C12.4112 5.625 10.3125 7.72367 10.3125 10.3125C10.3125 12.9013 12.4112 15 15 15Z" fill="#868891"/>
</svg>
