<svg width="35" height="35" viewBox="0 0 35 35" fill="none" xmlns="http://www.w3.org/2000/svg">
<circle cx="17.5" cy="17.5" r="17.5" fill="#00AAE1"/>
<path d="M22.5566 25H12.8789V23.2617L16.5605 19.5605C17.6478 18.4473 18.3672 17.6595 18.7188 17.1973C19.0768 16.7285 19.3372 16.2891 19.5 15.8789C19.6628 15.4688 19.7441 15.0293 19.7441 14.5605C19.7441 13.916 19.5488 13.4082 19.1582 13.0371C18.7741 12.666 18.2402 12.4805 17.5566 12.4805C17.0098 12.4805 16.4792 12.5814 15.9648 12.7832C15.457 12.985 14.8678 13.3496 14.1973 13.877L12.957 12.3633C13.7513 11.6927 14.5228 11.2174 15.2715 10.9375C16.0202 10.6576 16.8177 10.5176 17.6641 10.5176C18.9922 10.5176 20.0566 10.8659 20.8574 11.5625C21.6582 12.2526 22.0586 13.1836 22.0586 14.3555C22.0586 15 21.9414 15.612 21.707 16.1914C21.4792 16.7708 21.1243 17.3698 20.6426 17.9883C20.1673 18.6003 19.373 19.4303 18.2598 20.4785L15.7793 22.8809V22.9785H22.5566V25Z" fill="white"/>
</svg>
