<svg width="35" height="35" viewBox="0 0 35 35" fill="none" xmlns="http://www.w3.org/2000/svg">
<circle cx="17.5" cy="17.5" r="17.5" fill="#00AAE1"/>
<path d="M22.0195 14.0039C22.0195 14.9089 21.7559 15.6641 21.2285 16.2695C20.7012 16.8685 19.959 17.2721 19.002 17.4805V17.5586C20.1478 17.7018 21.0072 18.0599 21.5801 18.6328C22.153 19.1992 22.4395 19.9544 22.4395 20.8984C22.4395 22.2721 21.9544 23.3333 20.9844 24.082C20.0143 24.8242 18.6341 25.1953 16.8438 25.1953C15.2617 25.1953 13.9271 24.9382 12.8398 24.4238V22.3828C13.4453 22.6823 14.0866 22.9134 14.7637 23.0762C15.4408 23.2389 16.0918 23.3203 16.7168 23.3203C17.8236 23.3203 18.6504 23.1152 19.1973 22.7051C19.7441 22.2949 20.0176 21.6602 20.0176 20.8008C20.0176 20.0391 19.7148 19.4792 19.1094 19.1211C18.5039 18.763 17.5534 18.584 16.2578 18.584H15.0176V16.7188H16.2773C18.556 16.7188 19.6953 15.931 19.6953 14.3555C19.6953 13.7435 19.4967 13.2715 19.0996 12.9395C18.7025 12.6074 18.1165 12.4414 17.3418 12.4414C16.8014 12.4414 16.2806 12.5195 15.7793 12.6758C15.278 12.8255 14.6855 13.1217 14.002 13.5645L12.8789 11.9629C14.1875 10.9993 15.7077 10.5176 17.4395 10.5176C18.8783 10.5176 20.0013 10.8268 20.8086 11.4453C21.6159 12.0638 22.0195 12.9167 22.0195 14.0039Z" fill="white"/>
</svg>
