<svg width="20" height="20" viewBox="0 0 20 20" fill="none" xmlns="http://www.w3.org/2000/svg">
<g clip-path="url(#clip0)">
<path d="M19.8395 8.14891C19.9284 8.14891 20.0005 8.22098 20.0005 8.30988V10C20.0005 10.6326 19.9417 11.2511 19.829 11.8511C18.9573 16.5116 14.8514 20.0337 9.92997 19.9997C4.40774 19.9617 -0.011713 15.4998 0.000513589 9.97746C0.012662 4.46508 4.48524 0 10.0005 0C12.7025 0 15.1542 1.07195 16.9541 2.8132C17.0191 2.87605 17.0208 2.97965 16.9569 3.04355L14.5658 5.43461C14.5043 5.49617 14.4048 5.49777 14.3417 5.43773C13.212 4.36238 11.6835 3.70219 10.0005 3.70219C6.52504 3.70219 3.72641 6.48094 3.70282 9.95629C3.67911 13.4545 6.50786 16.2978 10.0005 16.2978C12.8343 16.2978 15.2311 14.4257 16.0214 11.8511H10.1614C10.0725 11.8511 10.0005 11.779 10.0005 11.6901V8.30984C10.0005 8.22094 10.0725 8.14887 10.1614 8.14887H19.8395V8.14891Z" fill="#2196F3"/>
<path d="M19.8388 8.14886H18.6316C18.7205 8.14886 18.7925 8.22094 18.7925 8.30984V9.99996C18.7925 10.6325 18.7338 11.2511 18.6211 11.8511C17.7894 16.2972 14.0142 19.7072 9.39551 19.9819C9.57223 19.9923 9.75012 19.9984 9.92926 19.9997C14.8507 20.0336 18.9566 16.5115 19.8283 11.8511C19.941 11.2511 19.9998 10.6325 19.9998 9.99996V8.3098C19.9998 8.22093 19.9277 8.14886 19.8388 8.14886Z" fill="#1E88E5"/>
<path d="M4.28019 7.36258L1.24316 5.1682C2.94699 2.08652 6.23027 0 10.0005 0C12.7026 0 15.1542 1.07195 16.9542 2.8132C17.0192 2.87605 17.0209 2.97965 16.9569 3.04355L14.5659 5.43461C14.5044 5.49606 14.405 5.49797 14.342 5.43805C13.2123 4.3625 11.6837 3.70223 10.0005 3.70223C7.4641 3.70223 5.27777 5.2016 4.28019 7.36258Z" fill="#F44336"/>
<path d="M3.40283 6.72915L4.27959 7.36263C5.19014 5.3902 7.09123 3.96965 9.34475 3.73665C9.3617 3.73481 9.37799 3.73258 9.39526 3.73094C9.19693 3.71211 8.99596 3.70227 8.79268 3.70227C6.50139 3.70227 4.50451 4.9102 3.40283 6.72915Z" fill="#E53935"/>
<path d="M15.7466 2.8132C15.8116 2.87605 15.8133 2.97965 15.7494 3.04359L13.8086 4.98434C13.9946 5.12574 14.1725 5.27699 14.3414 5.43777C14.4045 5.49781 14.504 5.49621 14.5655 5.43465L16.9566 3.04359C17.0205 2.97965 17.0188 2.87609 16.9539 2.8132C15.1539 1.07195 12.7023 0 10.0002 0C9.79742 0 9.59625 0.00675781 9.39648 0.0186719C11.859 0.165352 14.0817 1.20258 15.7466 2.8132Z" fill="#E53935"/>
<path d="M17.3349 16.796C15.5088 18.7666 12.8979 20 9.99932 20C6.08424 20 2.69471 17.7501 1.05322 14.4724L4.15381 12.3477C5.08424 14.6628 7.35104 16.2978 9.99932 16.2978C11.6613 16.2978 13.1728 15.6539 14.2979 14.602L17.3349 16.796Z" fill="#4CAF50"/>
<path d="M4.15453 12.3477L3.24023 12.9742C4.30215 14.9525 6.39039 16.2977 8.79277 16.2977C8.99594 16.2977 9.19676 16.2878 9.395 16.269C7.01027 16.0416 5.0132 14.4843 4.15453 12.3477Z" fill="#43A047"/>
<path d="M10.0001 20C12.8987 20 15.5095 18.7666 17.3357 16.796L16.5918 16.2586C14.8771 18.3926 12.3049 19.8083 9.39795 19.9818C9.59717 19.9937 9.79787 20 10.0001 20Z" fill="#43A047"/>
<path d="M3.70223 10C3.70223 10.8298 3.86277 11.6222 4.15453 12.3477L1.05391 14.4724C0.379492 13.1268 0 11.6077 0 10C0 8.24751 0.450703 6.6004 1.24266 5.16821L4.27969 7.36259C3.90906 8.16458 3.70223 9.05837 3.70223 10Z" fill="#FFC107"/>
<path d="M3.24038 12.9742L4.15468 12.3477C3.86292 11.6221 3.70238 10.8297 3.70238 9.99997C3.70238 9.05833 3.90921 8.16454 4.27984 7.36254L3.40308 6.72906C2.83374 7.66911 2.50331 8.77219 2.49527 9.9563C2.48784 11.0483 2.75843 12.0764 3.24038 12.9742Z" fill="#FFB300"/>
</g>
<defs>
<clipPath id="clip0">
<rect width="20" height="20" fill="white"/>
</clipPath>
</defs>
</svg>
