<svg width="25" height="25" viewBox="0 0 25 25" fill="none" xmlns="http://www.w3.org/2000/svg">
<path d="M24.9074 12.2042C24.7105 11.9177 19.9792 5.20825 12.4999 5.20825C6.08211 5.20825 0.363275 11.8792 0.122646 12.1636C-0.040882 12.3573 -0.040882 12.6417 0.122646 12.8365C0.363275 13.1209 6.08211 19.7918 12.4999 19.7918C18.9178 19.7918 24.6366 13.1209 24.8772 12.8365C25.0283 12.6573 25.0418 12.398 24.9074 12.2042ZM12.4999 18.7502C7.35508 18.7502 2.46331 13.8438 1.22061 12.5001C2.46126 11.1553 7.34781 6.24997 12.4999 6.24997C18.5198 6.24997 22.7689 11.149 23.8064 12.4719C22.6084 13.773 17.6885 18.7502 12.4999 18.7502Z" fill="#C5C5C5"/>
<path d="M12.4997 8.33325C10.2018 8.33325 8.33301 10.202 8.33301 12.5C8.33301 14.7979 10.2018 16.6667 12.4997 16.6667C14.7977 16.6667 16.6665 14.7979 16.6665 12.5C16.6665 10.202 14.7977 8.33325 12.4997 8.33325ZM12.4997 15.6251C10.7768 15.6251 9.37468 14.223 9.37468 12.5C9.37468 10.7771 10.7768 9.37497 12.4997 9.37497C14.2227 9.37497 15.6248 10.7771 15.6248 12.5C15.6248 14.223 14.2227 15.6251 12.4997 15.6251Z" fill="#C5C5C5"/>
</svg>
